# xmcd
#
# Track frame offsets:
#	150
#	12842
#	28785
#	44745
#	58135
#	73192
#	87202
#	99777
#	113592
#	126347
#	138015
#	153700
#	169035
#	184190
#	197052
#	209540
#	220017
#	237022
#
# Disc length: 3312 seconds
#
# Revision: 2
# Processed by: cddbd v1.4PL0 Copyright (c) Steve Scherf et al.
# Submitted via: CDmax 1.8
#
DISCID=fd0cee12
DTITLE=Country and Western - The very best of country Line Dance Disc 2
DYEAR=1998
DGENRE=Country
TTITLE0=Dumas walker
TTITLE1=Piece of my heart
TTITLE2=American honky-tonk bar association
TTITLE3=Super lover
TTITLE4=Zou can't have it all
TTITLE5=Taht's my story
TTITLE6=I'm in a hurry
TTITLE7=Guitars cadillacs
TTITLE8=My next broken heart
TTITLE9=My baby loves me
TTITLE10=A jukebox with a country song
TTITLE11=Reckless
TTITLE12=Trashy women
TTITLE13=Live until I die
TTITLE14=Cowboy boogie
TTITLE15=One more payment
TTITLE16=Standign outside the fire
TTITLE17=I want you bad
EXTD=
EXTT0=
EXTT1=
EXTT2=
EXTT3=
EXTT4=
EXTT5=
EXTT6=
EXTT7=
EXTT8=
EXTT9=
EXTT10=
EXTT11=
EXTT12=
EXTT13=
EXTT14=
EXTT15=
EXTT16=
EXTT17=
PLAYORDER=
